<?xml version="1.0" encoding="UTF-8"?>
<svg id="Layer_2" data-name="Layer 2" xmlns="http://www.w3.org/2000/svg" viewBox="0 0 1443.11 532.95">
  <g id="Layer_1-2" data-name="Layer 1">
    <g>
      <g>
        <path d="M1.25,379.8c.07-25.7,24.44-44.74,49.17-38.07,12.28,3.31,20.81,11.39,26.42,22.81,12.76,26,33.85,40.13,62.7,40,28.64-.13,49.42-14.35,62.15-40.17,6.59-13.36,16.96-22.06,32.15-23.53,16.17-1.57,29.05,4.95,37.55,18.53,13.79,22.05,2.37,50.69-21.68,58.22-11.69,3.66-22.17,1.86-32.29-4.16-2.12-1.26-3.49-1.28-5.36,.42-28.66,26.2-62.25,34.01-99.62,25.48-17.21-3.93-32.39-12.57-45.31-24.73-2.47-2.32-4.03-2.48-6.82-.7-18.58,11.88-45.31,4.21-54.63-15.88-2.6-5.61-3.82-11.86-5.67-17.82l1.25-.39Z"/>
        <path d="M131.92,284.8c10.8-1.37,21.21,.93,30.62,7.49,18.26,12.73,21.15,40.94,6.3,57.55-19.94,22.29-54.28,16.33-66.11-10.83-1.95-4.49-2.36-9.87-2.46-14.86-.07-3.6-1.5-4.82-4.4-6.07-8.25-3.56-16.72-6.85-24.46-11.34-15.69-9.09-27.57-22.2-36.39-37.94-10.24-18.26-14.95-37.96-13.62-58.91,.37-5.82,1.63-11.59,2.66-17.35,.45-2.5-.01-3.78-2.47-5.23C6.41,178.39-.33,165.01,1.41,147.45c1.44-14.55,12.97-27.25,27.83-32.34,15.09-5.17,33.34,1.78,42.16,13.36,10.48,13.76,11.41,31.23,2.08,45.32-8.78,13.25-14.67,27.43-14.39,43.47,.47,26.69,16.37,51.53,41.69,62.25,9.93,4.2,20.1,5.42,31.14,5.29Z"/>
        <path d="M243.4,454.64c33.98,1.8,64.13-20.05,71.53-52.06,4.81-20.81,1.17-40.35-11.59-57.79-13.86-18.94-6-47.93,15.35-57.79,19.77-9.14,42.07-1.51,51.86,16.96,9.72,18.34,3.86,40.34-13.1,51.05-4.11,2.6-5.69,4.73-4.68,10,5.36,27.94,.73,54.37-14.55,78.45-11.35,17.89-26.87,31.38-46.42,39.94-3.91,1.71-7.88,3.36-11.97,4.52-2.65,.75-3.41,1.83-3.38,4.57,.14,11.82-4.1,21.8-12.77,30.03-10.78,10.25-29.33,13.69-42.96,6.97-14.75-7.27-22.82-19.41-23.08-35.95-.35-22.54,19.06-40.58,41.67-39.25,1.58,.09,3.16,.27,4.09,.35Z"/>
        <path d="M449.23,343.78c18.52,9.51,26.39,25.32,22.72,44.99-3.75,20.1-26.63,34.28-46.55,29.71-23.3-5.35-37.14-28.63-28.47-52.49,2.5-6.88,7.26-12.91,10.66-19.49,7.34-14.21,9.14-29.31,5.67-44.81-3.61-16.1-11.88-29.42-25.12-39.65-13.83-10.69-29.43-15.14-46.65-13.96-15.44,1.06-28.4-3.26-38.21-15.73-15.21-19.36-6.82-49.71,15.75-59.62,21.86-9.6,47.31,3.07,53.35,24.63,.97,3.47,1.71,7.23,1.42,10.77-.39,4.71,2.18,5.94,5.76,7.08,15.52,4.93,29.02,13.23,40.65,24.6,15.36,15.01,25.27,32.98,30,53.95,3.56,15.77,3.62,31.41-.44,47.06-.23,.9-.34,1.84-.54,2.96Z"/>
        <path d="M229.7,78c-24.87-.84-46.07,8.64-60.68,29.96-13.95,20.36-15.87,42.79-6.33,65.67,3.14,7.53,8.06,14.3,11.65,21.67,8.84,18.14-.59,41.86-19.01,50.56-16.53,7.81-36.26,3.24-48.06-10.99-14.05-16.95-9.9-45.2,8.98-56.85,4.99-3.08,5.58-5.85,4.74-11.28-6.79-43.81,7.33-79.58,42.57-106.63,9.07-6.96,19.36-12.03,30.45-15.12,2.88-.8,3.6-2.18,3.64-5.01,.38-28.83,26.73-47.03,53.95-37.36,18.57,6.59,28.95,29.82,22.93,48.44-5.32,16.45-22.63,30.07-44.84,26.96Z"/>
        <path d="M429.74,192.16c-13.83-.62-25.45-9.6-32.9-24.71-10.26-20.8-26.63-33.53-49.47-38.24-30.84-6.36-62.75,11.4-75.55,39.79-6.14,13.63-17.27,21.77-32.39,23.04-15.99,1.34-28.43-5.54-37-18.81-13.58-21.04-2.13-50.52,21.73-57.93,11.84-3.68,22.39-1.77,32.81,4.13,1.18,.67,3.79,.48,4.76-.4,28.93-26.24,62.64-34.09,100.2-25.35,17.2,4,32.33,12.72,45.25,24.92,2.04,1.92,3.5,2.39,6.06,.81,19.99-12.37,45.41-4.83,55.5,16.32,12.62,26.47-6.32,56.55-39.02,56.44Z"/>
        <path d="M236.27,227.11c21.42,.06,39.42,17.97,39.43,39.23,0,21.46-18.12,39.43-39.74,39.41-21.76-.02-39.36-17.84-39.27-39.76,.09-21.57,17.77-38.95,39.58-38.89Z"/>
      </g>
      <g>
        <path d="M569.96,317.44c11.41,12.16,28.67,20.56,47.39,20.56,14.04,0,22.52-7.24,22.52-16.8,0-11.58-11.41-17.09-27.79-23.17-25.16-8.98-58.8-19.69-58.8-60.53,0-30.99,24.28-58.79,68.45-58.79,24.57,0,46.51,7.82,62.6,22.01l-21.94,34.75c-11.99-11-27.5-15.93-41.25-15.93s-19.6,6.66-19.6,15.35c0,10.42,11.12,15.64,27.79,21.72,25.16,8.98,58.51,21.14,58.51,60.24,0,36.78-25.74,61.68-69.91,61.68-31.59,0-54.12-9.56-70.5-25.2l22.52-35.91Z"/>
        <path d="M754.83,428.35h-42.42V235.19h42.42v16.51c8.78-13.9,21.65-19.98,34.81-19.98,31.89,0,52.95,26.64,52.95,73.27s-21.06,73.56-52.95,73.56c-12.87,0-26.04-5.79-34.81-19.98v69.79Zm20.48-159.57c-7.61,0-16.38,4.92-20.48,12.74v46.92c4.1,7.53,12.87,13.03,20.48,13.03,15.5,0,23.99-14.77,23.99-36.49s-8.48-36.2-23.99-36.2Z"/>
        <path d="M941.46,375.07v-13.61c-7.61,10.43-22.82,17.09-37.15,17.09-22.23,0-44.17-15.93-44.17-46.34s21.94-44.6,44.17-44.6c14.63,0,29.84,5.79,37.15,15.93v-16.22c0-13.03-9.07-21.72-24.86-21.72-11.7,0-24.28,5.21-34.81,14.48l-14.92-28.09c15.8-14.48,39.2-20.27,57.92-20.27,32.18,0,58.8,13.61,58.8,51.26v92.09h-42.12Zm0-49.23c-4.1-7.24-12.29-11-20.48-11-10.82,0-18.72,6.66-18.72,17.96s7.9,18.24,18.72,18.24c8.19,0,16.38-3.76,20.48-11v-14.19Z"/>
        <path d="M1021.02,392.73c2.34,1.45,6.14,2.03,9.36,2.03,7.31,0,12.58-2.32,14.63-8.11l3.22-8.98-47.97-142.48h44.76l24.87,89.48,25.45-89.48h44.76l-54.7,160.73c-9.65,28.67-26.62,35.62-51.78,35.91-4.68,0-14.33-.87-18.43-2.32l5.85-36.78Z"/>
        <path d="M1329.03,375.07l-7.31-30.12h-59.97l-7.31,30.12h-48.85l57.63-193.16h57.04l57.63,193.16h-48.85Zm-37.15-152.04l-20.77,81.67h41.54l-20.77-81.67Z"/>
        <path d="M1395.72,375.07V181.91h47.39v193.16h-47.39Z"/>
      </g>
    </g>
  </g>
</svg>