<?xml version="1.0" encoding="UTF-8"?>
<svg id="Layer_2" data-name="Layer 2" xmlns="http://www.w3.org/2000/svg" viewBox="0 0 954.21 1075.54">
  <g id="Layer_1-2" data-name="Layer 1">
    <g>
      <path d="M2.52,766.46c.14-51.86,49.33-90.3,99.24-76.83,24.78,6.68,42,22.98,53.31,46.04,25.76,52.48,68.32,80.99,126.53,80.72,57.79-.27,99.72-28.96,125.43-81.06,13.3-26.97,34.24-44.51,64.88-47.49,32.63-3.17,58.63,9.99,75.77,37.39,27.83,44.49,4.79,102.3-43.75,117.5-23.58,7.39-44.74,3.76-65.17-8.4-4.28-2.55-7.04-2.59-10.81,.86-57.84,52.87-125.62,68.64-201.05,51.42-34.73-7.93-65.37-25.37-91.44-49.92-4.98-4.69-8.14-5-13.76-1.41-37.5,23.97-91.45,8.49-110.24-32.05-5.25-11.32-7.7-23.93-11.44-35.95l2.52-.8Z"/>
      <path d="M266.22,574.74c21.8-2.76,42.79,1.87,61.8,15.12,36.85,25.69,42.69,82.61,12.71,116.14-40.23,44.98-109.55,32.95-133.41-21.86-3.94-9.05-4.76-19.92-4.97-29.99-.15-7.26-3.03-9.73-8.89-12.26-16.66-7.19-33.73-13.83-49.37-22.89-31.65-18.34-55.63-44.81-73.44-76.57-20.66-36.85-30.18-76.61-27.49-118.89,.75-11.74,3.29-23.39,5.38-35.02,.9-5.04-.03-7.64-4.99-10.55C12.94,360-.66,333,2.85,297.57c2.91-29.36,26.17-55,56.17-65.27,30.46-10.43,67.29,3.6,85.07,26.95,21.14,27.76,23.03,63.02,4.19,91.47-17.71,26.75-29.61,55.35-29.04,87.73,.95,53.86,33.04,104,84.13,125.62,20.04,8.48,40.56,10.93,62.84,10.68Z"/>
      <path d="M491.19,917.5c68.58,3.63,129.41-40.46,144.35-105.05,9.71-41.99,2.36-81.43-23.4-116.63-27.97-38.23-12.11-96.72,30.97-116.63,39.9-18.44,84.91-3.05,104.67,34.22,19.62,37.01,7.78,81.41-26.44,103.03-8.3,5.24-11.49,9.54-9.45,20.18,10.81,56.39,1.47,109.72-29.36,158.31-22.91,36.11-54.22,63.34-93.67,80.6-7.88,3.45-15.9,6.79-24.15,9.13-5.36,1.52-6.89,3.69-6.82,9.22,.29,23.86-8.28,43.99-25.76,60.6-21.76,20.68-59.19,27.63-86.7,14.07-29.77-14.67-46.05-39.18-46.57-72.54-.71-45.49,38.47-81.89,84.1-79.21,3.2,.19,6.38,.54,8.25,.7Z"/>
      <path d="M906.58,693.78c37.37,19.18,53.25,51.1,45.85,90.8-7.56,40.57-53.74,69.18-93.94,59.95-47.03-10.79-74.95-57.78-57.46-105.93,5.04-13.88,14.65-26.05,21.52-39.33,14.82-28.67,18.45-59.16,11.44-90.42-7.28-32.49-23.98-59.37-50.7-80.03-27.91-21.58-59.39-30.56-94.14-28.17-31.16,2.14-57.32-6.57-77.1-31.74-30.7-39.06-13.76-100.32,31.79-120.31,44.12-19.37,95.48,6.19,107.65,49.7,1.96,7,3.45,14.6,2.86,21.73-.79,9.5,4.4,11.99,11.62,14.28,31.32,9.94,58.56,26.7,82.04,49.64,31,30.29,50.99,66.56,60.54,108.88,7.18,31.83,7.31,63.38-.9,94.96-.47,1.82-.68,3.7-1.09,5.97Z"/>
      <path d="M463.54,157.42c-50.19-1.7-92.97,17.43-122.45,60.47-28.14,41.08-32.02,86.35-12.77,132.52,6.34,15.2,16.26,28.86,23.5,43.73,17.84,36.61-1.18,84.47-38.36,102.04-33.35,15.76-73.18,6.54-96.98-22.18-28.35-34.2-19.97-91.21,18.13-114.73,10.06-6.21,11.26-11.81,9.56-22.77-13.7-88.42,14.79-160.61,85.91-215.18,18.31-14.05,39.07-24.27,61.45-30.52,5.8-1.62,7.27-4.4,7.34-10.12,.76-58.18,53.95-94.91,108.89-75.4,37.47,13.31,58.42,60.17,46.27,97.75-10.74,33.2-45.66,60.69-90.48,54.4Z"/>
      <path d="M867.25,387.8c-27.91-1.25-51.35-19.38-66.4-49.87-20.71-41.97-53.75-67.66-99.83-77.17-62.24-12.84-126.64,23.02-152.46,80.29-12.4,27.5-34.84,43.93-65.37,46.49-32.28,2.71-57.38-11.18-74.66-37.95-27.41-42.46-4.29-101.95,43.85-116.92,23.9-7.43,45.19-3.57,66.22,8.33,2.38,1.35,7.66,.96,9.61-.8,58.39-52.95,126.41-68.8,202.21-51.15,34.72,8.08,65.25,25.67,91.32,50.28,4.11,3.88,7.06,4.83,12.24,1.62,40.35-24.96,91.65-9.75,112.01,32.94,25.48,53.41-12.76,114.13-78.74,113.91Z"/>
      <path d="M476.82,458.33c43.23,.11,79.56,36.26,79.57,79.18,.01,43.31-36.56,79.58-80.2,79.54-43.91-.04-79.42-36-79.24-80.23,.18-43.53,35.87-78.6,79.88-78.48Z"/>
    </g>
  </g>
</svg>