<?xml version="1.0" encoding="UTF-8"?>
<svg id="Layer_2" data-name="Layer 2" xmlns="http://www.w3.org/2000/svg" viewBox="0 0 365.6 412.09">
  <defs>
    <style>
      .cls-1 {
        fill: #f2f2f2;
      }
    </style>
  </defs>
  <g id="Layer_1-2" data-name="Layer 1">
    <g>
      <path class="cls-1" d="M.97,293.67c.05-19.87,18.9-34.6,38.02-29.44,9.49,2.56,16.09,8.81,20.43,17.64,9.87,20.11,26.17,31.03,48.48,30.93,22.14-.1,38.21-11.1,48.06-31.06,5.1-10.33,13.12-17.06,24.86-18.2,12.5-1.22,22.46,3.83,29.03,14.33,10.66,17.05,1.84,39.19-16.76,45.02-9.04,2.83-17.14,1.44-24.97-3.22-1.64-.98-2.7-.99-4.14,.33-22.16,20.26-48.13,26.3-77.03,19.7-13.31-3.04-25.04-9.72-35.04-19.13-1.91-1.8-3.12-1.92-5.27-.54-14.37,9.18-35.04,3.25-42.24-12.28-2.01-4.34-2.95-9.17-4.38-13.78l.97-.3Z"/>
      <path class="cls-1" d="M102,220.21c8.35-1.06,16.4,.72,23.68,5.79,14.12,9.84,16.36,31.65,4.87,44.5-15.42,17.23-41.97,12.63-51.11-8.38-1.51-3.47-1.82-7.63-1.9-11.49-.06-2.78-1.16-3.73-3.4-4.7-6.38-2.76-12.92-5.3-18.92-8.77-12.13-7.02-21.32-17.17-28.14-29.34-7.92-14.12-11.56-29.35-10.53-45.55,.29-4.5,1.26-8.96,2.06-13.42,.35-1.93-.01-2.93-1.91-4.04C4.96,137.93-.25,127.59,1.09,114.01c1.11-11.25,10.03-21.07,21.52-25.01,11.67-4,25.78,1.38,32.6,10.33,8.1,10.64,8.83,24.14,1.61,35.04-6.79,10.25-11.34,21.21-11.12,33.61,.37,20.64,12.66,39.85,32.23,48.13,7.68,3.25,15.54,4.19,24.08,4.09Z"/>
      <path class="cls-1" d="M188.2,351.53c26.28,1.39,49.58-15.5,55.31-40.25,3.72-16.09,.9-31.2-8.97-44.69-10.72-14.65-4.64-37.06,11.87-44.69,15.29-7.07,32.53-1.17,40.1,13.11,7.52,14.18,2.98,31.19-10.13,39.47-3.18,2.01-4.4,3.65-3.62,7.73,4.14,21.61,.56,42.04-11.25,60.66-8.78,13.83-20.77,24.27-35.89,30.88-3.02,1.32-6.09,2.6-9.25,3.5-2.05,.58-2.64,1.41-2.61,3.53,.11,9.14-3.17,16.85-9.87,23.22-8.34,7.92-22.68,10.59-33.22,5.39-11.41-5.62-17.64-15.01-17.84-27.79-.27-17.43,14.74-31.38,32.22-30.35,1.22,.07,2.45,.21,3.16,.27Z"/>
      <path class="cls-1" d="M347.35,265.82c14.32,7.35,20.4,19.58,17.57,34.79-2.9,15.54-20.59,26.5-35.99,22.97-18.02-4.13-28.72-22.14-22.01-40.58,1.93-5.32,5.61-9.98,8.25-15.07,5.68-10.99,7.07-22.67,4.38-34.65-2.79-12.45-9.19-22.75-19.42-30.66-10.69-8.27-22.76-11.71-36.07-10.79-11.94,.82-21.96-2.52-29.54-12.16-11.76-14.97-5.27-38.44,12.18-46.1,16.9-7.42,36.58,2.37,41.25,19.04,.75,2.68,1.32,5.59,1.1,8.33-.3,3.64,1.69,4.59,4.45,5.47,12,3.81,22.44,10.23,31.43,19.02,11.88,11.6,19.54,25.5,23.19,41.72,2.75,12.2,2.8,24.28-.34,36.38-.18,.7-.26,1.42-.42,2.29Z"/>
      <path class="cls-1" d="M177.6,60.31c-19.23-.65-35.62,6.68-46.92,23.17-10.78,15.74-12.27,33.09-4.89,50.77,2.43,5.82,6.23,11.06,9,16.76,6.84,14.03-.45,32.36-14.7,39.09-12.78,6.04-28.04,2.5-37.16-8.5-10.86-13.1-7.65-34.95,6.95-43.96,3.86-2.38,4.31-4.53,3.66-8.73-5.25-33.88,5.67-61.53,32.92-82.44,7.01-5.38,14.97-9.3,23.54-11.69,2.22-.62,2.79-1.68,2.81-3.88,.29-22.29,20.67-36.37,41.72-28.89,14.36,5.1,22.38,23.05,17.73,37.45-4.11,12.72-17.5,23.25-34.67,20.84Z"/>
      <path class="cls-1" d="M332.28,148.58c-10.69-.48-19.68-7.42-25.44-19.11-7.94-16.08-20.59-25.93-38.25-29.57-23.85-4.92-48.52,8.82-58.41,30.76-4.75,10.54-13.35,16.83-25.05,17.81-12.37,1.04-21.98-4.28-28.61-14.54-10.5-16.27-1.64-39.06,16.8-44.8,9.16-2.85,17.32-1.37,25.37,3.19,.91,.52,2.93,.37,3.68-.31,22.37-20.29,48.43-26.36,77.48-19.6,13.3,3.1,25,9.84,34.99,19.27,1.57,1.49,2.7,1.85,4.69,.62,15.46-9.57,35.11-3.74,42.92,12.62,9.76,20.46-4.89,43.73-30.17,43.64Z"/>
      <path class="cls-1" d="M182.69,175.61c16.57,.04,30.48,13.89,30.49,30.34,0,16.59-14.01,30.49-30.73,30.47-16.82-.02-30.43-13.79-30.36-30.74,.07-16.68,13.74-30.11,30.6-30.07Z"/>
    </g>
  </g>
</svg>